<svg height="24" viewBox="0 0 24 24" width="24" xmlns="http://www.w3.org/2000/svg"><path d="m16.1666667 6c-.0920475 0-.1666667.07461921-.1666667.16666667v1.66666666c0 .09204746.0746192.16666667.1666667.16666667h1.6666666c.0920475 0 .1666667-.07461921.1666667-.16666667v-1.66666666c0-.09204746-.0746192-.16666667-.1666667-.16666667zm-.1666667 12v-.5c0-.2761424.2238576-.5.5-.5s.5.2238576.5.5v.5h1v-.5c0-.2761424.2238576-.5.5-.5s.5.2238576.5.5v1c0 .2761424-.2238576.5-.5.5h-4c-.2761424 0-.5-.2238576-.5-.5v-1c0-.2761424.2238576-.5.5-.5s.5.2238576.5.5v.5zm-3-7h.5c.2761424 0 .5.2238576.5.5s-.2238576.5-.5.5h-2c-.2761424 0-.5-.2238576-.5-.5s.2238576-.5.5-.5h.5v-1h-1.5c-.2761424 0-.5-.22385763-.5-.5s.2238576-.5.5-.5h3c.2761424 0 .5.22385763.5.5s-.2238576.5-.5.5h-.5zm5 1h-.5c-.2761424 0-.5-.2238576-.5-.5s.2238576-.5.5-.5h.5v-.5c0-.2761424.2238576-.5.5-.5s.5.2238576.5.5v2c0 .2761424-.2238576.5-.5.5s-.5-.2238576-.5-.5zm-5 2h-.5c-.2761424 0-.5-.2238576-.5-.5s.2238576-.5.5-.5h1c.2761424 0 .5.2238576.5.5v2c0 .2761424-.2238576.5-.5.5h-3c-.2761424 0-.5-.2238576-.5-.5s.2238576-.5.5-.5h2.5zm3.1666667-9h1.6666666c.6443322 0 1.1666667.52233446 1.1666667 1.16666667v1.66666666c0 .64433221-.5223345 1.16666667-1.1666667 1.16666667h-1.6666666c-.6443322 0-1.1666667-.52233446-1.1666667-1.16666667v-1.66666666c0-.64433221.5223345-1.16666667 1.1666667-1.16666667zm-10.00000003 0h1.66666666c.64433221 0 1.16666667.52233446 1.16666667 1.16666667v1.66666666c0 .64433221-.52233446 1.16666667-1.16666667 1.16666667h-1.66666666c-.64433221 0-1.16666667-.52233446-1.16666667-1.16666667v-1.66666666c0-.64433221.52233446-1.16666667 1.16666667-1.16666667zm0 1c-.09204746 0-.16666667.07461921-.16666667.16666667v1.66666666c0 .09204746.07461921.16666667.16666667.16666667h1.66666666c.09204746 0 .16666667-.07461921.16666667-.16666667v-1.66666666c0-.09204746-.07461921-.16666667-.16666667-.16666667zm0 9h1.66666666c.64433221 0 1.16666667.5223345 1.16666667 1.1666667v1.6666666c0 .6443322-.52233446 1.1666667-1.16666667 1.1666667h-1.66666666c-.64433221 0-1.16666667-.5223345-1.16666667-1.1666667v-1.6666666c0-.6443322.52233446-1.1666667 1.16666667-1.1666667zm0 1c-.09204746 0-.16666667.0746192-.16666667.1666667v1.6666666c0 .0920475.07461921.1666667.16666667.1666667h1.66666666c.09204746 0 .16666667-.0746192.16666667-.1666667v-1.6666666c0-.0920475-.07461921-.1666667-.16666667-.1666667zm6.83333333-10h-2.5c-.2761424 0-.5-.22385763-.5-.5s.2238576-.5.5-.5h3c.2761424 0 .5.22385763.5.5v2c0 .27614237-.2238576.5-.5.5s-.5-.22385763-.5-.5zm-2.5 2c-.2761424 0-.5-.22385763-.5-.5s.2238576-.5.5-.5h1c.2761424 0 .5.22385763.5.5s-.2238576.5-.5.5zm-5 6c-.27614237 0-.5-.2238576-.5-.5s.22385763-.5.5-.5h2c.27614237 0 .5.2238576.5.5s-.22385763.5-.5.5zm4 0c-.27614237 0-.5-.2238576-.5-.5s.22385763-.5.5-.5h1c.2761424 0 .5.2238576.5.5s-.2238576.5-.5.5zm1.5 4v.5c0 .2761424-.2238576.5-.5.5s-.5-.2238576-.5-.5v-1c0-.2761424.2238576-.5.5-.5h2c.2761424 0 .5.2238576.5.5s-.2238576.5-.5.5zm-2-7h.5c.27614237 0 .5.2238576.5.5s-.22385763.5-.5.5h-1c-.27614237 0-.5-.2238576-.5-.5v-.5h-.5c-.27614237 0-.5-.2238576-.5-.5s.22385763-.5.5-.5h1c.27614237 0 .5.2238576.5.5zm-4-.5c0-.2761424.22385763-.5.5-.5s.5.2238576.5.5v1c0 .2761424-.22385763.5-.5.5s-.5-.2238576-.5-.5zm10 0c0-.2761424.2238576-.5.5-.5s.5.2238576.5.5v2c0 .2761424-.2238576.5-.5.5s-.5-.2238576-.5-.5zm2 4.5v-.5c0-.2761424.2238576-.5.5-.5h1c.2761424 0 .5.2238576.5.5s-.2238576.5-.5.5h-.5v.5c0 .2761424-.2238576.5-.5.5h-2c-.2761424 0-.5-.2238576-.5-.5v-1c0-.2761424.2238576-.5.5-.5s.5.2238576.5.5v.5zm-14-8.5c0 .27614237-.22385763.5-.5.5s-.5-.22385763-.5-.5v-2c0-1.38071187 1.11928813-2.5 2.5-2.5h2c.27614237 0 .5.22385763.5.5s-.22385763.5-.5.5h-2c-.82842712 0-1.5.67157288-1.5 1.5zm14.5-3.5c-.2761424 0-.5-.22385763-.5-.5s.2238576-.5.5-.5h2c1.3807119 0 2.5 1.11928813 2.5 2.5v2c0 .27614237-.2238576.5-.5.5s-.5-.22385763-.5-.5v-2c0-.82842712-.6715729-1.5-1.5-1.5zm-11 18c.27614237 0 .5.2238576.5.5s-.22385763.5-.5.5h-2c-1.38071187 0-2.5-1.1192881-2.5-2.5v-2c0-.2761424.22385763-.5.5-.5s.5.2238576.5.5v2c0 .8284271.67157288 1.5 1.5 1.5zm14.5-3.5c0-.2761424.2238576-.5.5-.5s.5.2238576.5.5v2c0 1.3807119-1.1192881 2.5-2.5 2.5h-2c-.2761424 0-.5-.2238576-.5-.5s.2238576-.5.5-.5h2c.8284271 0 1.5-.6715729 1.5-1.5z"/></svg>