<?xml version="1.0" encoding="UTF-8" standalone="no"?>
<!-- Created with Inkscape (http://www.inkscape.org/) -->

<svg
   version="1.1"
   id="svg1"
   width="630.37732"
   height="630.37732"
   viewBox="0 0 630.37732 630.37732"
   xmlns="http://www.w3.org/2000/svg"
   xmlns:svg="http://www.w3.org/2000/svg">
  <defs
     id="defs1">
    <clipPath
       clipPathUnits="userSpaceOnUse"
       id="clipPath3">
      <path
         d="M 0,792 H 792 V 0 H 0 Z"
         transform="translate(-517.60162,-228.2959)"
         id="path3" />
    </clipPath>
  </defs>
  <g
     id="layer-MC0"
     transform="translate(-212.81148,-212.81215)">
    <path
       id="path1"
       d="M 0,0 H 792 V 792 H 0 Z"
       style="fill:none;fill-opacity:1;fill-rule:nonzero;stroke:none"
       transform="matrix(1.3333333,0,0,-1.3333333,0,1056)" />
    <path
       id="path2"
       d="m 0,0 v 0 c -25.382,0 -46.103,20.722 -46.103,46.103 0,25.381 20.721,46.102 46.103,46.102 25.381,0 46.103,-20.721 46.103,-46.102 C 46.103,20.722 25.381,0 0,0 M -267.365,313.468 H -76.861 V 122.964 h -190.504 z m 16.419,90.627 H 7.815 c 58.793,0 106.975,-48.181 106.975,-107.046 V 38.287 C 114.79,-20.506 66.608,-68.688 7.815,-68.688 h -258.761 c -58.865,0 -107.047,48.182 -107.047,106.975 v 258.762 c 0,58.865 48.182,107.046 107.047,107.046"
       style="fill:#2f67fd;fill-opacity:1;fill-rule:evenodd;stroke:none"
       transform="matrix(1.3333333,0,0,-1.3333333,690.13547,751.60547)"
       clip-path="url(#clipPath3)" />
  </g>
</svg>
